<?xml version="1.0" encoding="UTF-8" standalone="no"?>
<!-- Created with Inkscape (http://www.inkscape.org/) -->

<svg
   version="1.1"
   id="svg3483"
   xml:space="preserve"
   width="682.66669"
   height="682.66669"
   viewBox="0 0 682.66669 682.66669"
   xmlns="http://www.w3.org/2000/svg"
   xmlns:svg="http://www.w3.org/2000/svg"><defs
     id="defs3487"><clipPath
       clipPathUnits="userSpaceOnUse"
       id="clipPath3497"><path
         d="M 0,512 H 512 V 0 H 0 Z"
         id="path3495" /></clipPath></defs><g
     id="g3489"
     transform="matrix(1.3333333,0,0,-1.3333333,0,682.66667)"><g
       id="g3491"><g
         id="g3493"
         clip-path="url(#clipPath3497)"><g
           id="g3499"
           transform="translate(481.9102,181.1997)"><path
             d="m 0,0 v -149.72 c 0,-5.52 -4.48,-10 -10,-10 h -431.82 c -5.52,0 -10,4.48 -10,10 V 0 Z"
             style="fill:#aa6a50;fill-opacity:1;fill-rule:nonzero;stroke:none"
             id="path3501" /></g><g
           id="g3503"
           transform="translate(481.9102,181.1997)"><path
             d="m 0,0 v -149.72 c 0,-5.52 -4.48,-10 -10,-10 h -47.77 c 5.52,0 10,4.48 10,10 V 0 Z"
             style="fill:#935b44;fill-opacity:1;fill-rule:nonzero;stroke:none"
             id="path3505" /></g><g
           id="g3507"
           transform="translate(30.0898,181.1997)"><path
             d="M 0,0 H 19.28 C 13.38,-3 6.81,-4.59 0,-4.59 Z"
             style="fill:#feb541;fill-opacity:1;fill-rule:nonzero;stroke:none"
             id="path3509" /></g><g
           id="g3511"
           transform="translate(77.8599,181.1997)"><path
             d="m 0,0 h 85.19 v -10.92 c 0,-23.49 -19.11,-42.59 -42.6,-42.59 -0.5,0 -1.02,0.01 -1.53,0.03 C 18.04,-52.67 0,-33.73 0,-10.38 Z"
             style="fill:#935b44;fill-opacity:1;fill-rule:nonzero;stroke:none"
             id="path3513" /></g><g
           id="g3515"
           transform="translate(282.1499,181.1997)"><path
             d="m 0,0 h 38.24 c -5.77,-2.94 -12.3,-4.59 -19.21,-4.59 -0.51,0 -1.02,0.01 -1.53,0.03 C 11.13,-4.34 5.23,-2.74 0,0"
             style="fill:#feb541;fill-opacity:1;fill-rule:nonzero;stroke:none"
             id="path3517" /></g><g
           id="g3519"
           transform="translate(348.9502,181.1997)"><path
             d="m 0,0 h 85.19 v -10.92 c 0,-23.49 -19.11,-42.59 -42.59,-42.59 -0.51,0 -1.03,0.01 -1.54,0.03 C 18.04,-52.67 0,-33.73 0,-10.38 Z"
             style="fill:#935b44;fill-opacity:1;fill-rule:nonzero;stroke:none"
             id="path3521" /></g><g
           id="g3523"
           transform="translate(30.0908,31.48)"><path
             d="m 0,0 v 0 c 0,-5.523 4.477,-10 10,-10 h 431.818 c 5.523,0 10,4.477 10,10 V 149.715 H 0 V 32.991"
             style="fill:none;stroke:#000000;stroke-width:15;stroke-linecap:round;stroke-linejoin:round;stroke-miterlimit:10;stroke-dasharray:none;stroke-opacity:1"
             id="path3525" /></g><path
           d="M 481.91,80.34 H 30.09 v 42 h 451.82 z"
           style="fill:#ffe7c7;fill-opacity:1;fill-rule:nonzero;stroke:none"
           id="path3527" /><path
           d="m 481.91,80.34 h -47.77 v 42 h 47.77 z"
           style="fill:#ffd693;fill-opacity:1;fill-rule:nonzero;stroke:none"
           id="path3529" /><g
           id="g3531"
           transform="translate(145.3027,122.3389)"><path
             d="M 0,0 H -115.212 V -42.003 H 336.606 V 0 H 32.99"
             style="fill:none;stroke:#000000;stroke-width:15;stroke-linecap:round;stroke-linejoin:round;stroke-miterlimit:10;stroke-dasharray:none;stroke-opacity:1"
             id="path3533" /></g><path
           d="M 481.91,170.19 H 30.09 v 136.23 h 451.82 z"
           style="fill:#fe4855;fill-opacity:1;fill-rule:nonzero;stroke:none"
           id="path3535" /><g
           id="g3537"
           transform="translate(30.0898,306.4199)"><path
             d="m 0,0 v -129.81 c 11.38,0 22.07,4.43 30.12,12.47 8.04,8.05 12.47,18.74 12.47,30.12 0,1.43 1.16,2.59 2.59,2.59 h 0.12 c 1.29,-0.05 2.47,-1.54 2.47,-3.13 v -47.84 c 0,-0.21 0,-0.42 0.01,-0.63 h 85.18 v 73.39 c 0,1.59 1.18,3.08 2.47,3.13 h 0.12 c 1.42,0 2.59,-1.16 2.59,-2.59 0,-23.48 19.1,-42.59 42.59,-42.59 23.48,0 42.59,19.11 42.59,42.59 0,1.43 1.16,2.59 2.59,2.59 h 0.11 c 1.3,-0.05 2.48,-1.54 2.48,-3.13 v -19.43 c 0,-26.68 17.27,-46.67 41.06,-47.51 0.51,-0.02 1.02,-0.03 1.53,-0.03 23.49,0 42.59,19.11 42.59,42.59 0,1.43 1.17,2.59 2.59,2.59 h 0.12 c 1.29,-0.05 2.47,-1.54 2.47,-3.13 v -47.84 c 0,-0.21 0,-0.42 0.01,-0.63 h 132.95 l 0,136.23 z"
             style="fill:#fb2b3b;fill-opacity:1;fill-rule:nonzero;stroke:none"
             id="path3539" /></g><path
           d="M 481.909,170.194 H 30.091 v 136.224 h 451.818 z"
           style="fill:none;stroke:#000000;stroke-width:15;stroke-linecap:round;stroke-linejoin:round;stroke-miterlimit:10;stroke-dasharray:none;stroke-opacity:1"
           id="path3541" /><g
           id="g3543"
           transform="translate(210.3726,410.8184)"><path
             d="m 0,0 c 10.847,-18.031 10.527,-39.665 1.035,-56.846 -19.626,-0.336 -38.898,9.512 -49.745,27.543 -9.531,15.842 -10.437,34.46 -4.085,50.391 1.628,4.085 5.828,6.61 10.199,6.134 C -25.544,25.365 -9.531,15.843 0,0"
             style="fill:#80d361;fill-opacity:1;fill-rule:nonzero;stroke:none"
             id="path3545" /></g><g
           id="g3547"
           transform="translate(211.4102,353.9697)"><path
             d="m 0,0 c -4.18,-0.07 -8.35,0.32 -12.42,1.16 2.71,13.43 0.6,27.87 -7.02,40.53 -8.54,14.19 -22.28,23.31 -37.32,26.39 0.68,3.37 1.66,6.67 2.93,9.86 1.63,4.08 5.83,6.61 10.2,6.13 C -26.58,82.21 -10.57,72.69 -1.04,56.85 9.81,38.82 9.49,17.18 0,0"
             style="fill:#67cb44;fill-opacity:1;fill-rule:nonzero;stroke:none"
             id="path3549" /></g><g
           id="g3551"
           transform="translate(210.3726,410.8184)"><path
             d="m 0,0 c 10.847,-18.031 10.527,-39.665 1.035,-56.846 -19.626,-0.336 -38.898,9.512 -49.745,27.543 -9.531,15.842 -10.437,34.46 -4.085,50.391 1.628,4.085 5.828,6.61 10.199,6.134 C -25.544,25.365 -9.531,15.843 0,0 Z"
             style="fill:none;stroke:#000000;stroke-width:15;stroke-linecap:round;stroke-linejoin:round;stroke-miterlimit:10;stroke-dasharray:none;stroke-opacity:1"
             id="path3553" /></g><g
           id="g3555"
           transform="translate(301.6274,410.8184)"><path
             d="m 0,0 c -10.847,-18.031 -10.527,-39.665 -1.035,-56.846 19.626,-0.336 38.898,9.512 49.745,27.543 9.531,15.842 10.437,34.46 4.085,50.391 -1.628,4.085 -5.828,6.61 -10.199,6.134 C 25.544,25.365 9.531,15.843 0,0"
             style="fill:#80d361;fill-opacity:1;fill-rule:nonzero;stroke:none"
             id="path3557" /></g><g
           id="g3559"
           transform="translate(350.3398,381.52)"><path
             d="m 0,0 c -10.85,-18.04 -30.12,-27.88 -49.75,-27.55 -0.61,1.11 -1.19,2.24 -1.72,3.38 11.86,4.28 22.39,12.51 29.4,24.17 10.15,16.87 10.52,36.9 2.75,53.47 4.216,1.517 8.6,2.539 13.054,3.036 4.425,0.495 8.7,-1.987 10.349,-6.123 C 10.435,34.455 9.527,15.84 0,0"
             style="fill:#67cb44;fill-opacity:1;fill-rule:nonzero;stroke:none"
             id="path3561" /></g><g
           id="g3563"
           transform="translate(301.6274,410.8184)"><path
             d="m 0,0 c -10.847,-18.031 -10.527,-39.665 -1.035,-56.846 19.626,-0.336 38.898,9.512 49.745,27.543 9.531,15.842 10.437,34.46 4.085,50.391 -1.628,4.085 -5.828,6.61 -10.199,6.134 C 25.544,25.365 9.531,15.843 0,0 Z"
             style="fill:none;stroke:#000000;stroke-width:15;stroke-linecap:round;stroke-linejoin:round;stroke-miterlimit:10;stroke-dasharray:none;stroke-opacity:1"
             id="path3565" /></g><g
           id="g3567"
           transform="translate(198.7832,395.8696)"><path
             d="m 0,0 c 0,36.521 17.112,69.044 43.753,89.997 7.889,6.204 19.04,6.205 26.929,0.002 C 97.331,69.045 114.434,36.521 114.434,0 114.434,-26.556 88.817,-48.084 57.217,-48.084 25.617,-48.084 0,-26.556 0,0"
             style="fill:#fe4855;fill-opacity:1;fill-rule:nonzero;stroke:none"
             id="path3569" /></g><g
           id="g3571"
           transform="translate(313.2202,395.8696)"><path
             d="m 0,0 c 0,-26.56 -25.62,-48.08 -57.22,-48.08 -4.84,0 -9.53,0.5 -14.02,1.45 24.82,5.26 43.19,24.14 43.19,46.63 0,36.26 -16.86,68.59 -43.19,89.55 0.18,0.15 0.37,0.3 0.56,0.45 7.89,6.2 19.04,6.2 26.93,0 C -17.11,69.05 0,36.52 0,0"
             style="fill:#fb2b3b;fill-opacity:1;fill-rule:nonzero;stroke:none"
             id="path3573" /></g><g
           id="g3575"
           transform="translate(226.8159,404.8511)"><path
             d="M 0,0 H 0.113"
             style="fill:none;stroke:#000000;stroke-width:15;stroke-linecap:round;stroke-linejoin:round;stroke-miterlimit:10;stroke-dasharray:none;stroke-opacity:1"
             id="path3577" /></g><g
           id="g3579"
           transform="translate(255.9365,404.8511)"><path
             d="M 0,0 H 0.113"
             style="fill:none;stroke:#000000;stroke-width:15;stroke-linecap:round;stroke-linejoin:round;stroke-miterlimit:10;stroke-dasharray:none;stroke-opacity:1"
             id="path3581" /></g><g
           id="g3583"
           transform="translate(285.0576,404.8511)"><path
             d="M 0,0 H 0.113"
             style="fill:none;stroke:#000000;stroke-width:15;stroke-linecap:round;stroke-linejoin:round;stroke-miterlimit:10;stroke-dasharray:none;stroke-opacity:1"
             id="path3585" /></g><g
           id="g3587"
           transform="translate(255.9365,460.2075)"><path
             d="M 0,0 H 0.113"
             style="fill:none;stroke:#000000;stroke-width:15;stroke-linecap:round;stroke-linejoin:round;stroke-miterlimit:10;stroke-dasharray:none;stroke-opacity:1"
             id="path3589" /></g><g
           id="g3591"
           transform="translate(241.376,432.5293)"><path
             d="M 0,0 H 0.113"
             style="fill:none;stroke:#000000;stroke-width:15;stroke-linecap:round;stroke-linejoin:round;stroke-miterlimit:10;stroke-dasharray:none;stroke-opacity:1"
             id="path3593" /></g><g
           id="g3595"
           transform="translate(270.4971,432.5293)"><path
             d="M 0,0 H 0.113"
             style="fill:none;stroke:#000000;stroke-width:15;stroke-linecap:round;stroke-linejoin:round;stroke-miterlimit:10;stroke-dasharray:none;stroke-opacity:1"
             id="path3597" /></g><g
           id="g3599"
           transform="translate(198.7832,395.8696)"><path
             d="m 0,0 c 0,36.521 17.112,69.044 43.753,89.997 7.889,6.204 19.04,6.205 26.929,0.002 C 97.331,69.045 114.434,36.521 114.434,0 114.434,-26.556 88.817,-48.084 57.217,-48.084 25.617,-48.084 0,-26.556 0,0 Z"
             style="fill:none;stroke:#000000;stroke-width:15;stroke-linecap:round;stroke-linejoin:round;stroke-miterlimit:10;stroke-dasharray:none;stroke-opacity:1"
             id="path3601" /></g><g
           id="g3603"
           transform="translate(190.4087,343.228)"><path
             d="m 0,0 c 0,-22.445 -18.195,-40.641 -40.641,-40.641 -22.445,0 -40.641,18.196 -40.641,40.641 0,22.446 18.196,40.641 40.641,40.641 C -18.195,40.641 0,22.446 0,0"
             style="fill:#aa6a50;fill-opacity:1;fill-rule:nonzero;stroke:none"
             id="path3605" /></g><g
           id="g3607"
           transform="translate(190.4102,343.23)"><path
             d="m 0,0 c 0,-22.45 -18.2,-40.64 -40.64,-40.64 -5.54,0 -10.82,1.11 -15.64,3.11 14.69,6.13 25.01,20.62 25.01,37.53 0,16.9 -10.32,31.4 -25.01,37.53 4.82,2 10.1,3.11 15.64,3.11 C -18.2,40.64 0,22.44 0,0"
             style="fill:#935b44;fill-opacity:1;fill-rule:nonzero;stroke:none"
             id="path3609" /></g><g
           id="g3611"
           transform="translate(190.4087,343.228)"><path
             d="m 0,0 c 0,-22.445 -18.195,-40.641 -40.641,-40.641 -22.445,0 -40.641,18.196 -40.641,40.641 0,22.446 18.196,40.641 40.641,40.641 C -18.195,40.641 0,22.446 0,0 Z"
             style="fill:none;stroke:#000000;stroke-width:15;stroke-linecap:round;stroke-linejoin:round;stroke-miterlimit:10;stroke-dasharray:none;stroke-opacity:1"
             id="path3613" /></g><g
           id="g3615"
           transform="translate(261.2305,343.228)"><path
             d="m 0,0 c 0,-22.445 -18.196,-40.641 -40.641,-40.641 -22.446,0 -40.641,18.196 -40.641,40.641 0,22.446 18.195,40.641 40.641,40.641 C -18.196,40.641 0,22.446 0,0"
             style="fill:#aa6a50;fill-opacity:1;fill-rule:nonzero;stroke:none"
             id="path3617" /></g><g
           id="g3619"
           transform="translate(261.23,343.23)"><path
             d="m 0,0 c 0,-22.45 -18.2,-40.64 -40.64,-40.64 -5.54,0 -10.82,1.11 -15.64,3.11 14.69,6.13 25.01,20.62 25.01,37.53 0,16.9 -10.32,31.4 -25.01,37.53 4.82,2 10.1,3.11 15.64,3.11 C -18.2,40.64 0,22.44 0,0"
             style="fill:#935b44;fill-opacity:1;fill-rule:nonzero;stroke:none"
             id="path3621" /></g><g
           id="g3623"
           transform="translate(261.2305,343.228)"><path
             d="m 0,0 c 0,-22.445 -18.196,-40.641 -40.641,-40.641 -22.446,0 -40.641,18.196 -40.641,40.641 0,22.446 18.195,40.641 40.641,40.641 C -18.196,40.641 0,22.446 0,0 Z"
             style="fill:none;stroke:#000000;stroke-width:15;stroke-linecap:round;stroke-linejoin:round;stroke-miterlimit:10;stroke-dasharray:none;stroke-opacity:1"
             id="path3625" /></g><g
           id="g3627"
           transform="translate(332.0518,343.228)"><path
             d="m 0,0 c 0,-22.445 -18.195,-40.641 -40.641,-40.641 -22.445,0 -40.641,18.196 -40.641,40.641 0,22.446 18.196,40.641 40.641,40.641 C -18.195,40.641 0,22.446 0,0"
             style="fill:#aa6a50;fill-opacity:1;fill-rule:nonzero;stroke:none"
             id="path3629" /></g><g
           id="g3631"
           transform="translate(332.0498,343.23)"><path
             d="m 0,0 c 0,-22.45 -18.19,-40.64 -40.64,-40.64 -5.54,0 -10.82,1.11 -15.63,3.12 14.69,6.12 25.01,20.61 25.01,37.52 0,16.9 -10.32,31.39 -25.01,37.52 4.81,2.01 10.09,3.12 15.63,3.12 C -18.19,40.64 0,22.44 0,0"
             style="fill:#935b44;fill-opacity:1;fill-rule:nonzero;stroke:none"
             id="path3633" /></g><g
           id="g3635"
           transform="translate(332.0518,343.228)"><path
             d="m 0,0 c 0,-22.445 -18.195,-40.641 -40.641,-40.641 -22.445,0 -40.641,18.196 -40.641,40.641 0,22.446 18.196,40.641 40.641,40.641 C -18.195,40.641 0,22.446 0,0 Z"
             style="fill:none;stroke:#000000;stroke-width:15;stroke-linecap:round;stroke-linejoin:round;stroke-miterlimit:10;stroke-dasharray:none;stroke-opacity:1"
             id="path3637" /></g><g
           id="g3639"
           transform="translate(402.8735,343.228)"><path
             d="m 0,0 c 0,-22.445 -18.196,-40.641 -40.641,-40.641 -22.446,0 -40.641,18.196 -40.641,40.641 0,22.446 18.195,40.641 40.641,40.641 C -18.196,40.641 0,22.446 0,0"
             style="fill:#aa6a50;fill-opacity:1;fill-rule:nonzero;stroke:none"
             id="path3641" /></g><g
           id="g3643"
           transform="translate(402.8701,343.23)"><path
             d="m 0,0 c 0,-22.45 -18.19,-40.64 -40.64,-40.64 -5.54,0 -10.82,1.11 -15.63,3.11 14.68,6.13 25.01,20.62 25.01,37.53 0,16.9 -10.33,31.4 -25.01,37.53 4.81,2 10.09,3.11 15.63,3.11 C -18.19,40.64 0,22.44 0,0"
             style="fill:#935b44;fill-opacity:1;fill-rule:nonzero;stroke:none"
             id="path3645" /></g><g
           id="g3647"
           transform="translate(402.8735,343.228)"><path
             d="m 0,0 c 0,-22.445 -18.196,-40.641 -40.641,-40.641 -22.446,0 -40.641,18.196 -40.641,40.641 0,22.446 18.195,40.641 40.641,40.641 C -18.196,40.641 0,22.446 0,0 Z"
             style="fill:none;stroke:#000000;stroke-width:15;stroke-linecap:round;stroke-linejoin:round;stroke-miterlimit:10;stroke-dasharray:none;stroke-opacity:1"
             id="path3649" /></g><g
           id="g3651"
           transform="translate(7.5,218.8901)"><path
             d="m 0,0 c 0,-9.248 5.643,-17.724 14.355,-20.823 15.935,-5.667 30.827,5.994 30.827,21.134 0,12.75 10.563,23.033 23.415,22.576 12.241,-0.435 21.767,-10.868 21.767,-23.118 v -47.838 c 0,-12.249 9.525,-22.682 21.767,-23.118 12.852,-0.457 23.414,9.827 23.414,22.577 v 73.3 c 0,12.249 9.526,22.683 21.767,23.118 12.853,0.457 23.415,-9.827 23.415,-22.577 0,-12.476 10.115,-22.59 22.591,-22.59 12.477,0 22.591,10.114 22.591,22.59 0,12.75 10.563,23.034 23.415,22.577 12.241,-0.435 21.767,-10.869 21.767,-23.118 V 5.259 c 0,-16.663 9.525,-27.09 21.767,-27.525 12.852,-0.457 23.415,9.827 23.415,22.577 0,12.75 10.562,23.033 23.414,22.576 12.242,-0.435 21.768,-10.868 21.768,-23.118 v -47.838 c 0,-12.249 9.525,-22.682 21.767,-23.118 12.852,-0.457 23.414,9.827 23.414,22.577 v 97.3 c 0,12.249 9.526,22.683 21.767,23.118 12.852,0.457 23.415,-9.827 23.415,-22.577 V 0.852 c 0,-12.249 9.525,-22.683 21.767,-23.118 C 486.437,-22.723 497,-12.439 497,0.311 v 89.567 c 0,13.808 -11.193,25 -25,25 H 25 c -13.807,0 -25,-11.192 -25,-25 z"
             style="fill:#ffe7c7;fill-opacity:1;fill-rule:nonzero;stroke:none"
             id="path3653" /></g><g
           id="g3655"
           transform="translate(504.5,308.77)"><path
             d="m 0,0 v -89.57 c 0,-12.75 -10.56,-23.03 -23.41,-22.58 -6.85,0.25 -12.85,3.62 -16.79,8.68 3,3.83 4.79,8.66 4.79,13.9 V 0 c 0,13.81 -11.19,25 -25,25 H -25 C -11.19,25 0,13.81 0,0"
             style="fill:#ffd693;fill-opacity:1;fill-rule:nonzero;stroke:none"
             id="path3657" /></g><g
           id="g3659"
           transform="translate(349.7148,333.7686)"><path
             d="m 0,0 h -317.215 c -13.807,0 -25,-11.193 -25,-25 v -89.878 c 0,-9.248 5.643,-17.725 14.356,-20.823 15.934,-5.667 30.826,5.994 30.826,21.133 0,12.75 10.562,23.033 23.415,22.576 12.242,-0.435 21.767,-10.868 21.767,-23.117 v -47.838 c 0,-12.25 9.525,-22.683 21.767,-23.118 12.852,-0.457 23.415,9.826 23.415,22.576 v 73.301 c 0,12.25 9.525,22.682 21.767,23.117 12.852,0.457 23.415,-9.825 23.415,-22.576 0,-12.477 10.114,-22.591 22.591,-22.591 12.476,0 22.59,10.114 22.59,22.591 0,12.751 10.563,23.033 23.415,22.576 12.242,-0.435 21.767,-10.868 21.767,-23.117 v -19.431 c 0,-16.663 9.525,-27.09 21.767,-27.525 12.852,-0.457 23.415,9.826 23.415,22.576 0,12.75 10.563,23.033 23.415,22.576 12.241,-0.435 21.767,-10.868 21.767,-23.117 v -47.838 c 0,-12.25 9.525,-22.683 21.767,-23.118 12.852,-0.457 23.414,9.826 23.414,22.576 v 97.301 c 0,12.25 9.526,22.682 21.767,23.117 12.853,0.457 23.416,-9.825 23.416,-22.576 v -48.379 c 0,-12.25 9.524,-22.683 21.767,-23.118 12.852,-0.457 23.414,9.826 23.414,22.576 V -25 c 0,13.807 -11.193,25 -25,25 L 32.991,0"
             style="fill:none;stroke:#000000;stroke-width:15;stroke-linecap:round;stroke-linejoin:round;stroke-miterlimit:10;stroke-dasharray:none;stroke-opacity:1"
             id="path3661" /></g></g></g></g></svg>
