<svg width="20" height="20" viewBox="0 0 20 20" fill="#3B5162" xmlns="http://www.w3.org/2000/svg">
<path d="M11.9511 0.716507L12.1334 0.886513L12.8522 1.60526C13.0991 1.85098 13.4229 2.00248 13.7674 2.03652L13.9161 2.04384H14.9441C16.5479 2.04384 17.8594 3.29801 17.951 4.87889L17.9561 5.05584V6.08284C17.9561 6.43264 18.0767 6.76892 18.2943 7.0363L18.3934 7.14651L19.1122 7.86531C20.2437 8.99172 20.2943 10.793 19.2577 11.9801L19.1224 12.1252L18.3941 12.8535C18.1491 13.0991 17.9975 13.4232 17.9634 13.7673L17.9561 13.9158V14.9448C17.9561 16.5486 16.702 17.8592 15.1211 17.9507L14.9441 17.9558H13.9161C13.5676 17.9558 13.2309 18.077 12.9633 18.2952L12.8531 18.3945L12.1352 19.1114C11.01 20.2442 9.20745 20.2945 8.01992 19.2575L7.86577 19.1132L7.14866 18.3961C6.90027 18.1494 6.57583 17.9974 6.23232 17.9632L6.0841 17.9558H5.0551C3.45197 17.9558 2.14083 16.7023 2.04922 15.1218L2.0441 14.9448V13.9158C2.0441 13.5679 1.92281 13.2308 1.70472 12.9638L1.60541 12.8538L0.888277 12.1357C-0.244298 11.0095 -0.294536 9.20685 0.742484 8.0205L0.877774 7.87551L1.60389 7.1484C1.85084 6.89969 2.00267 6.57588 2.03676 6.23152L2.0441 6.08284V5.05584L2.04922 4.87891C2.13744 3.35675 3.3566 2.13721 4.87824 2.04896L5.0551 2.04384H6.0841C6.43259 2.04384 6.76936 1.92296 7.0364 1.70578L7.14641 1.60688L7.86457 0.887716C8.99094 -0.243762 10.7934 -0.293576 11.9511 0.716507ZM9.04152 1.84263L8.9268 1.9468L8.20555 2.66905C7.6883 3.18264 7.00418 3.48972 6.28193 3.53733L6.0841 3.54384H5.0551C4.26754 3.54384 3.61982 4.14799 3.55028 4.91828L3.5441 5.05584V6.08284C3.5441 6.81201 3.27949 7.51316 2.80221 8.06122L2.6668 8.2068L1.93963 8.93497C1.38782 9.48929 1.35569 10.365 1.84334 10.959L1.9478 11.0739L2.66706 11.7941C3.18147 12.3098 3.48976 12.9951 3.53756 13.7179L3.5441 13.9158V14.9448C3.5441 15.7329 4.14781 16.3802 4.91762 16.4497L5.0551 16.4558H6.0841C6.8119 16.4558 7.51365 16.7207 8.06183 17.1981L8.20743 17.3335L8.93075 18.0568C9.48896 18.6119 10.3649 18.6442 10.9584 18.1566L11.0731 18.0521L11.794 17.3323C12.3107 16.818 12.9952 16.5101 13.7181 16.4624L13.9161 16.4558H14.9441C15.7328 16.4558 16.3804 15.8524 16.4499 15.0824L16.4561 14.9448V13.9158C16.4561 13.187 16.7209 12.484 17.1976 11.9383L17.3328 11.7935L18.0603 11.066C18.6121 10.5111 18.644 9.63583 18.1571 9.04201L18.0528 8.92717L17.3309 8.20529C16.817 7.68772 16.5102 7.00428 16.4626 6.281L16.4561 6.08284V5.05584C16.4561 4.26743 15.852 3.61958 15.0817 3.55002L14.9441 3.54384H13.9161C13.1869 3.54384 12.4849 3.27946 11.938 2.80249L11.7928 2.66717L11.1048 1.9774L11.065 1.94037C10.5107 1.38861 9.63484 1.3563 9.04152 1.84263ZM13.0965 12.0424C13.1665 12.1124 13.2265 12.1924 13.2665 12.2824C13.2965 12.3724 13.3165 12.4724 13.3165 12.5724C13.3165 12.6734 13.2965 12.7624 13.2665 12.8524C13.2265 12.9424 13.1665 13.0324 13.0965 13.1024C12.9565 13.2424 12.7665 13.3224 12.5665 13.3224C12.3665 13.3224 12.1765 13.2424 12.0365 13.1024C11.9665 13.0324 11.9165 12.9424 11.8765 12.8524C11.8365 12.7624 11.8165 12.6734 11.8165 12.5724C11.8165 12.4724 11.8365 12.3724 11.8765 12.2824C11.9165 12.1924 11.9665 12.1124 12.0365 12.0424C12.3165 11.7624 12.8165 11.7624 13.0965 12.0424ZM13.1001 6.89921C13.3664 7.16548 13.3906 7.58214 13.1728 7.87575L13.1001 7.95987L7.96013 13.0999C7.66724 13.3928 7.19237 13.3928 6.89947 13.0999C6.63321 12.8336 6.609 12.4169 6.82686 12.1233L6.89947 12.0392L12.0395 6.89921C12.3324 6.60632 12.8072 6.60632 13.1001 6.89921ZM7.9564 6.90284C8.0964 7.04184 8.1764 7.23284 8.1764 7.43284C8.1764 7.53284 8.1664 7.62184 8.1264 7.71284C8.0864 7.80284 8.0264 7.88284 7.9564 7.96284C7.8864 8.03284 7.8064 8.08184 7.7164 8.12184C7.6264 8.16184 7.5264 8.18284 7.4264 8.18284C7.3264 8.18284 7.2364 8.16184 7.1464 8.12184C7.0564 8.08184 6.9664 8.03284 6.8964 7.96284C6.8264 7.88284 6.7764 7.80284 6.7364 7.71284C6.6964 7.62184 6.6764 7.53284 6.6764 7.43284C6.6764 7.33184 6.6964 7.23284 6.7364 7.14284C6.7764 7.05284 6.8264 6.96284 6.8964 6.90284C7.1864 6.62184 7.6764 6.62184 7.9564 6.90284Z" />
</svg>
