<?xml version="1.0" encoding="iso-8859-1"?>
<!-- Generator: Adobe Illustrator 19.0.0, SVG Export Plug-In . SVG Version: 6.00 Build 0)  -->
<svg version="1.1" id="Capa_1" xmlns="http://www.w3.org/2000/svg" xmlns:xlink="http://www.w3.org/1999/xlink" x="0px" y="0px"
	 viewBox="0 0 511.999 511.999" style="enable-background:new 0 0 511.999 511.999;" xml:space="preserve">
<polygon style="fill:#D1E7F8;" points="187.943,503.148 30.802,503.148 13.316,485.663 13.316,157.738 55.435,107.378 
	55.435,40.391 163.309,40.391 163.309,107.378 205.428,157.738 205.428,485.663 "/>
<polygon style="fill:#9BC9FF;" points="54.455,157.738 96.575,107.378 96.575,40.391 55.435,40.391 55.435,107.378 13.316,157.738 
	13.316,485.663 30.802,503.148 71.94,503.148 54.455,485.663 "/>
<polygon style="fill:#FFFFFF;" points="43.235,241.509 43.235,466.217 50.246,473.228 168.498,473.228 175.509,466.217 
	175.509,241.509 "/>
<polygon style="fill:#D8D7DA;" points="76.895,241.509 43.235,241.509 43.235,466.217 50.246,473.228 83.906,473.228 
	76.895,466.217 "/>
<rect x="43.134" y="7.48" style="fill:#FFA733;" width="132.474" height="32.912"/>
<rect x="43.134" y="7.48" style="fill:#FF6243;" width="52.03" height="32.912"/>
<g>
	<path style="fill:#FFDAAA;" d="M352.084,431.221c0,40.482-32.817,73.299-73.299,73.299s-73.299-32.817-73.299-73.299
		s32.817-113.346,73.299-113.346S352.084,390.739,352.084,431.221z"/>
	<path style="fill:#FFDAAA;" d="M498.683,431.221c0,40.482-32.817,73.299-73.299,73.299s-73.299-32.817-73.299-73.299
		s32.817-113.346,73.299-113.346S498.683,390.739,498.683,431.221z"/>
	<path style="fill:#FFDAAA;" d="M425.383,271.764c0,40.482-32.817,73.299-73.299,73.299s-73.299-32.817-73.299-73.299
		s32.817-113.346,73.299-113.346S425.383,231.281,425.383,271.764z"/>
</g>
<g>
	<path style="fill:#FFBCAB;" d="M241.458,431.221c0-34.276,23.528-91.759,55.313-108.581c-5.756-3.046-11.78-4.764-17.986-4.764
		c-40.482,0-73.299,72.864-73.299,113.346s32.817,73.299,73.299,73.299c6.206,0,12.23-0.779,17.986-2.231
		C264.986,494.27,241.458,465.496,241.458,431.221z"/>
	<path style="fill:#FFBCAB;" d="M388.057,431.221c0-34.276,23.528-91.759,55.313-108.581c-5.756-3.046-11.78-4.764-17.986-4.764
		c-40.482,0-73.299,72.864-73.299,113.346s32.817,73.299,73.299,73.299c6.206,0,12.23-0.779,17.986-2.231
		C411.584,494.27,388.057,465.496,388.057,431.221z"/>
	<path style="fill:#FFBCAB;" d="M314.757,271.764c0-34.276,23.528-91.759,55.313-108.581c-5.756-3.046-11.78-4.764-17.986-4.764
		c-40.482,0-73.299,72.864-73.299,113.346s32.817,73.299,73.299,73.299c6.206,0,12.23-0.779,17.986-2.231
		C338.285,334.813,314.757,306.04,314.757,271.764z"/>
</g>
<g>
	<path style="fill:#1D1D1F;" d="M170.789,73.802h9.642v-14.96h-9.642V47.871h12.302V0H35.654v47.871h12.302v10.971h-9.642v14.96
		h9.642v30.86L5.837,155.022V488.76l21.866,21.867h163.338l21.867-21.867V155.022l-42.119-50.361V73.802z M50.613,14.96h117.517
		v17.952H50.613V14.96z M62.915,47.871h92.914v10.971H62.915V47.871z M197.949,160.454v322.11l-13.104,13.104H33.899l-13.104-13.104
		v-322.11l38.135-45.596h43.543v-14.96H62.915V73.802h92.914v36.292L197.949,160.454z"/>
	<path style="fill:#1D1D1F;" d="M35.755,469.316l11.393,11.392h124.448l11.392-11.392V234.029H35.755V469.316z M50.715,248.989
		h117.314v214.131l-2.629,2.629H53.345l-2.63-2.63C50.715,463.118,50.715,248.989,50.715,248.989z"/>
	<rect x="135.555" y="316.659" style="fill:#1D1D1F;" width="14.96" height="103.223"/>
	<rect x="135.555" y="266.793" style="fill:#1D1D1F;" width="14.96" height="14.96"/>
	<rect x="135.555" y="291.726" style="fill:#1D1D1F;" width="14.96" height="14.96"/>
</g>
<g>
	<rect x="120.097" y="160.18" style="fill:#FFFFFF;" width="60.338" height="14.96"/>
	<rect x="70.231" y="160.18" style="fill:#FFFFFF;" width="14.96" height="14.96"/>
	<rect x="95.164" y="160.18" style="fill:#FFFFFF;" width="14.96" height="14.96"/>
	<path style="fill:#FFFFFF;" d="M304.233,403.886c1.544,4.62,2.801,9.197,3.738,13.606l14.634-3.109
		c-1.053-4.959-2.46-10.086-4.183-15.239L304.233,403.886z"/>
	<path style="fill:#FFFFFF;" d="M294.846,382.248c2.211,4.055,4.258,8.353,6.082,12.775l13.829-5.706
		c-2.029-4.918-4.308-9.706-6.777-14.232L294.846,382.248z"/>
	<path style="fill:#FFFFFF;" d="M298.613,454.915l9.612,11.463c10.443-8.755,16.433-21.57,16.433-35.156
		c0-1.886-0.115-3.971-0.341-6.2l-14.883,1.517c0.176,1.724,0.265,3.299,0.264,4.68
		C309.698,440.373,305.657,449.009,298.613,454.915z"/>
</g>
<path style="fill:#1D1D1F;" d="M483.713,355.663c-16.636-29.192-37.351-45.268-58.329-45.268c-0.808,0-1.615,0.032-2.422,0.08
	c6.307-11.502,9.901-24.694,9.901-38.711c0-21.968-8.812-51.626-22.451-75.557c-16.636-29.192-37.351-45.268-58.329-45.268
	c-20.979,0-41.693,16.077-58.329,45.268c-13.637,23.932-22.45,53.589-22.45,75.557c0,14.017,3.594,27.209,9.901,38.711
	c-0.807-0.048-1.614-0.08-2.421-0.08c-21.783,0-43.086,17.136-59.984,48.25l13.147,7.139c13.954-25.694,31.025-40.43,46.837-40.43
	c15.149,0,31.672,13.747,45.332,37.716c12.254,21.504,20.487,48.891,20.487,68.15c0,36.293-29.527,65.82-65.819,65.82
	c-18.342,0-35.374-7.376-47.959-20.768l-10.902,10.244c15.219,16.194,36.673,25.484,58.861,25.484
	c32.443,0,60.461-19.234,73.299-46.889c12.838,27.655,40.857,46.889,73.3,46.889c44.542,0,80.779-36.238,80.779-80.78
	C506.162,409.253,497.351,379.595,483.713,355.663z M306.752,203.614c13.659-23.969,30.182-37.716,45.332-37.716
	c15.15,0,31.673,13.747,45.332,37.716c12.255,21.504,20.488,48.891,20.488,68.15c0,36.293-29.527,65.82-65.82,65.82
	c-36.292,0-65.819-29.527-65.819-65.82C286.265,252.504,294.498,225.117,306.752,203.614z M337.115,355.663
	c-1.012-1.775-2.04-3.501-3.081-5.179c5.808,1.331,11.844,2.058,18.051,2.058c6.206,0,12.243-0.727,18.051-2.058
	c-1.041,1.677-2.068,3.403-3.081,5.179c-6.064,10.639-11.165,22.411-14.971,34.135C348.279,378.074,343.177,366.303,337.115,355.663
	z M425.383,497.04c-36.293,0-65.82-29.527-65.82-65.82c0-19.259,8.233-46.647,20.488-68.15
	c13.659-23.969,30.182-37.716,45.332-37.716s31.672,13.747,45.332,37.716c12.254,21.504,20.487,48.891,20.487,68.15
	C491.202,467.514,461.677,497.04,425.383,497.04z"/>
<g>
	<path style="fill:#FFFFFF;" d="M461.356,389.317c-2.029-4.918-4.308-9.706-6.777-14.232l-13.134,7.163
		c2.211,4.055,4.258,8.353,6.082,12.775L461.356,389.317z"/>
	<path style="fill:#FFFFFF;" d="M454.57,417.492l14.634-3.109c-1.053-4.959-2.46-10.086-4.183-15.239l-14.189,4.742
		C452.376,408.506,453.633,413.083,454.57,417.492z"/>
	<path style="fill:#FFFFFF;" d="M456.032,426.541c0.176,1.724,0.265,3.299,0.264,4.68c0,9.151-4.04,17.787-11.085,23.694
		l9.612,11.463c10.443-8.756,16.433-21.571,16.433-35.156c0-1.886-0.115-3.971-0.341-6.2L456.032,426.541z"/>
	<path style="fill:#FFFFFF;" d="M382.997,271.765c0,9.151-4.04,17.787-11.085,23.694l9.612,11.463
		c10.443-8.756,16.433-21.571,16.433-35.156c0-1.886-0.115-3.971-0.341-6.199l-14.883,1.517
		C382.908,268.81,382.998,270.382,382.997,271.765z"/>
	<path style="fill:#FFFFFF;" d="M388.057,229.86c-2.029-4.918-4.308-9.706-6.777-14.232l-13.134,7.163
		c2.211,4.055,4.258,8.353,6.082,12.775L388.057,229.86z"/>
	<path style="fill:#FFFFFF;" d="M381.271,258.036l14.634-3.109c-1.053-4.959-2.46-10.086-4.183-15.239l-14.189,4.742
		C379.077,249.049,380.334,253.626,381.271,258.036z"/>
</g>
<g>
</g>
<g>
</g>
<g>
</g>
<g>
</g>
<g>
</g>
<g>
</g>
<g>
</g>
<g>
</g>
<g>
</g>
<g>
</g>
<g>
</g>
<g>
</g>
<g>
</g>
<g>
</g>
<g>
</g>
</svg>
