<?xml version="1.0" encoding="UTF-8"?>
<svg version="1.1" viewBox="0 0 2048 1716" width="512" height="429" xmlns="http://www.w3.org/2000/svg">
<path transform="translate(847,27)" d="m0 0 4 1 7 8 2 1v2l4 2v2l4 2 352 352 7 8 15 16 9 11 11 13 13 17 14 19 19 29 9 15 11 19 6-1 40-10 36-7 37-5 24-2 19-1h543l1 1v550l-3 37-5 37-7 36-9 36-9 30-12 33-13 31-14 29-11 21-14 24-14 22-14 20-12 16-11 14-11 13-12 14-12 13-33 33-11 9-12 11-10 8-14 11-18 13-20 14-21 13-26 15-46 23-39 16-19 7-36 11-36 9-31 6-34 5-32 3-16 1-31 1h-518l-370-370-7-8-7-7-7-8-10-11-9-11-12-15-14-19-24-36-9-15-13-23-18-36-9-21-11-28-12-35-11-41-7-34-6-39-3-30-2-37v-32l2-37 4-36 6-36 8-36 8-30 12-36 8-21 11-26 18-37 12-22 14-23 16-24 10-14 12-16 11-14 13-15 12-14 13-13 5-6 7-6 5-6 7-6 5-6 8-7 199-199 5-6 7-6 5-6 7-6 5-6 7-6 5-6 7-6 5-6 7-6 5-6 7-6 5-6 7-6 5-6 7-6 5-6 7-6 5-6 8-7 4-5 7-6z" fill="#78BC6E"/>
<path transform="translate(1490,518)" d="m0 0h543l1 1v550l-3 37-5 37-7 36-9 36-9 30-12 33-13 31-14 29-11 21-14 24-14 22-14 20-12 16-11 14-11 13-12 14-12 13-33 33-11 9-12 11-10 8-14 11-18 13-20 14-21 13-26 15-46 23-39 16-19 7-36 11-36 9-31 6-34 5-32 3-16 1-31 1h-518l2-4 17-16 8-8 8-7 73-73 1-2h2l2-4 271-271 7-8 9-10 11-14 14-17 7-10 12-17 10-15 11-18 7-11 6-11 17-33 13-29 11-28 13-38 9-33 8-37 5-30 4-33 1-15 1-32v-25l-2-47-4-37-7-40-6-27-7-26-11-36-14-37-11-24-16-32v-4l7-3 37-9 36-7 37-5 24-2z" fill="#00965C"/>
<path transform="translate(842,266)" d="m0 0h12l9 5 7 7 2 5 1 7v273l5-4 8-11 15-16 8-7 10-9 15-11 14-9 18-10 16-8 9-3h10l10 5 6 7 4 8v10l-4 9-8 7-27 14-14 8-14 10-16 13-9 9-11 14-8 11-7 11-11 21-7 18-4 14-5 25-2 21-1 127 5-5 11-13 12-13 14-13 17-13 19-12 14-8 18-8 34-14 26-10 20-8 34-14 28-11 18-7h12l8 4 7 8 4 10v7l-3 7-7 8-8 5-21 9-13 5-20 8-33 13-40 16-27 11-25 12-22 15-13 11-20 20-13 18-9 15-11 23-7 20-5 24-2 13-1 12-1 129 5-5 14-17 17-17 10-8 13-10 20-13 25-13 27-11 36-14 27-11 70-28 6-2h12l9 5 5 6 4 8 1 9-4 9-6 7-12 7-20 8-28 11-45 18-16 6-30 12-23 10-17 9-17 12-10 8-10 9-10 10-11 14-12 18-9 17-8 20-5 16-4 19-2 15-1 15-1 159-3 7-7 8-6 4-4 1h-8l-10-5-7-6-3-6-1-4-1-19v-108l-1-47-3-23-7-24-9-23-12-22-8-11-10-13-11-12-8-7-11-9-10-7-15-9-15-8-27-11-80-32-28-11-26-11-9-6-7-8-2-5v-10l3-7 7-8 8-5h11l24 9 45 18 27 11 16 6 11 5 16 6 13 5 13 6 14 6 21 12 16 11 12 9v2l4 2 15 14 13 14 9 11h1v-121l-1-19-4-25-7-24-6-15-10-20-7-11-10-14-11-12-5-6-11-9-8-7-15-10-14-8-16-8-27-11-41-16-85-34-9-5-7-6-5-10v-10l3-7 8-9 8-4h9l15 5 37 15 60 24 47 19 24 11 14 8 11 7 15 11 11 9 24 24 9 11 2 3 3 1-1-120-1-19-4-26-4-15-7-20-10-21-10-16-12-16-12-13-8-8-17-13-19-12-15-8-16-8-6-5-5-9-1-2v-9l3-8 7-8 7-4 4-1h7l14 5 16 8 18 10 19 13 13 11 10 9 15 15 9 11 5 5v-233l1-46 4-7 8-7z" fill="#00965C"/>
<path transform="translate(1842,681)" d="m0 0h12l10 5 5 6 3 8v9l-5 10-9 10-2 3h-2l-2 4-16 16h-2l-2 4-8 8h-2l-2 4-135 135-8 7-3 3-1 3 15-2h44l33 5 23 6 18 6 15 8 5 6 2 6v11l-4 8-5 6-10 5h-10l-17-6-20-6-12-3-19-3-15-1h-11l-20 2-26 5-30 10-16 8-17 10-13 10-11 9-8 8-8 7-16 17-53 53-10 8-9 4h-10l-9-4-6-7-3-6-1-6 1-9 6-9 90-90 7-9 12-16 9-15 8-16 7-17 4-13 6-31v-41l-3-23-6-23-9-26 1-11 6-9 9-6 6-2 9 1 10 5 6 8 8 20 7 26 4 22 2 18v34l-2 21 5-3 188-188 9-6z" fill="#78BC6E"/>
</svg>
